<svg width="80" height="80" viewBox="0 0 80 80" fill="none" xmlns="http://www.w3.org/2000/svg">
<path d="M20 68.0012H1.33328C0.595937 68.0012 0 68.5986 0 69.3345C0 70.0704 0.595937 70.6678 1.33328 70.6678H20C20.7373 70.6678 21.3333 70.0704 21.3333 69.3345C21.3333 68.5986 20.7373 68.0012 20 68.0012Z" fill="#D4C17F"/>
<path d="M16 65.3319C24.8227 65.3319 32 58.1531 32 49.3319C32 44.9145 30.2386 40.8012 27.04 37.7492C26.5094 37.2425 25.6627 37.2625 25.1547 37.7933C24.6467 38.3266 24.6667 39.1706 25.1987 39.6786C27.8641 42.2227 29.3334 45.6492 29.3334 49.3319C29.3334 56.6839 23.352 62.6652 16.0002 62.6652C8.64828 62.6652 2.66687 56.6838 2.66687 49.3319C2.66687 41.9786 8.64828 35.9986 16.0002 35.9986C16.7375 35.9986 17.3334 35.4012 17.3334 34.6653C17.3334 33.928 16.7375 33.332 16.0002 33.332C7.1775 33.332 0.000155928 40.5094 0.000155928 49.332C-3.2167e-07 58.1531 7.17734 65.3319 16 65.3319Z" fill="#D4C17F"/>
<path d="M22.6667 27.9983H23.3427L15.64 46.701C14.3414 46.8783 13.3333 47.9836 13.3333 49.3316C13.3333 50.8022 14.5292 51.9983 16 51.9983C17.4706 51.9983 18.6667 50.8024 18.6667 49.3316C18.6667 48.721 18.4534 48.1663 18.1067 47.7156L25.6308 29.4463L34.0695 41.6983C34.4855 42.305 35.3136 42.4596 35.9228 42.041C36.5308 41.6224 36.6828 40.793 36.2642 40.1863L27.8695 27.9983H30.6669C32.8722 27.9983 34.6669 26.2036 34.6669 23.9983C34.6669 21.7916 32.8722 19.9983 30.6669 19.9983H22.6669C21.9295 19.9983 21.3336 20.5942 21.3336 21.3316V26.6649C21.3333 27.4011 21.9294 27.9983 22.6667 27.9983ZM24 22.665H30.6667C31.4027 22.665 32 23.2624 32 23.9983C32 24.733 31.4027 25.3316 30.6667 25.3316H24V22.665Z" fill="#D4C17F"/>
<path d="M62.6667 34.6651C62.6667 35.401 63.2627 35.9984 64 35.9984C71.352 35.9984 77.3333 41.9783 77.3333 49.3316C77.3333 56.6837 71.3519 62.6649 64 62.6649C56.6481 62.6649 50.6667 56.6835 50.6667 49.3316C50.6667 45.3357 52.4361 41.5849 55.5241 39.0384C56.0908 38.5704 56.172 37.7304 55.7027 37.1624C55.2347 36.5957 54.3959 36.5118 53.8253 36.9812C50.1239 40.0359 48 44.5358 48 49.3318C48 58.153 55.1773 65.3318 64 65.3318C72.8227 65.3318 80 58.153 80 49.3318C80 40.5091 72.8227 33.3318 64 33.3318C63.2627 33.3318 62.6667 33.9277 62.6667 34.6651Z" fill="#D4C17F"/>
<path d="M41.3333 68.0012H28C27.2627 68.0012 26.6667 68.5986 26.6667 69.3345C26.6667 70.0704 27.2627 70.6678 28 70.6678H41.3333C42.0706 70.6678 42.6666 70.0704 42.6666 69.3345C42.6667 68.5986 42.0706 68.0012 41.3333 68.0012Z" fill="#D4C17F"/>
<path d="M41.3333 42.8545V38.6651C42.0706 38.6651 42.6666 38.0678 42.6666 37.3318C42.6666 36.5945 42.0706 35.9985 41.3333 35.9985H38.6666C37.9292 35.9985 37.3333 36.5945 37.3333 37.3318C37.3333 38.0678 37.9292 38.6651 38.6666 38.6651V42.8545C36.3719 43.4504 34.6666 45.5198 34.6666 47.9985C34.6666 50.4759 36.3719 52.5453 38.6666 53.1426V57.332C37.9292 57.332 37.3333 57.9279 37.3333 58.6653C37.3333 59.4012 37.9292 59.9985 38.6666 59.9985H41.3333C42.0706 59.9985 42.6666 59.4012 42.6666 58.6653C42.6666 57.9279 42.0706 57.332 41.3333 57.332V53.1426C43.628 52.5453 45.3333 50.4759 45.3333 47.9985C45.3333 45.5198 43.628 43.4504 41.3333 42.8545ZM40 50.6651C38.5306 50.6651 37.3333 49.4692 37.3333 47.9984C37.3333 46.5278 38.5306 45.3317 40 45.3317C41.4706 45.3317 42.6667 46.5276 42.6667 47.9984C42.6667 49.4692 41.4706 50.6651 40 50.6651Z" fill="#D4C17F"/>
<path d="M61.9453 47.6518C61.5694 48.1118 61.3333 48.6918 61.3333 49.3318C61.3333 50.8024 62.5306 51.9985 64 51.9985C65.4694 51.9985 66.6667 50.8026 66.6667 49.3318C66.6667 48.0118 65.7 46.9212 64.4414 46.7092L58.4241 30.6651H67.9426C69.5386 30.6651 70.4667 29.3892 70.6412 28.2598L71.9733 21.5931C72.0519 21.201 71.9506 20.7945 71.6973 20.4864C71.4441 20.177 71.0667 19.9984 70.6667 19.9984H58.6667C57.9294 19.9984 57.3334 20.5943 57.3334 21.3317C57.3334 22.0676 57.9294 22.6649 58.6667 22.6649H69.04L68.0214 27.7664C68.0014 27.8584 67.9441 27.9878 67.9428 27.9984H57.4242L53.2495 16.8637C53.2469 16.8584 53.2428 16.8557 53.2416 16.8504C53.2389 16.8451 53.2402 16.8398 53.2389 16.8357L50.5722 10.169C50.2989 9.48495 49.5162 9.15698 48.8389 9.42636C48.1548 9.69964 47.8216 10.4757 48.0948 11.1596L50.5242 17.2276L45.5095 26.0035C45.1428 26.6423 45.3655 27.4568 46.0055 27.8223C46.2134 27.9409 46.4414 27.9982 46.6655 27.9982C47.1295 27.9982 47.5787 27.757 47.8241 27.3262L51.7494 20.4582L54.9573 29.0142L44.7959 40.4448C44.3053 40.9954 44.3559 41.8381 44.9066 42.3274C45.1598 42.5542 45.4759 42.6648 45.7919 42.6648C46.1586 42.6648 46.5252 42.5128 46.7878 42.2168L56.0158 31.8368L61.9453 47.6518Z" fill="#D4C17F"/>
<path d="M78.6667 68.0012H57.3333C56.5959 68.0012 56 68.5986 56 69.3345C56 70.0704 56.5959 70.6678 57.3333 70.6678H78.6666C79.4039 70.6678 79.9998 70.0704 79.9998 69.3345C80 68.5986 79.4041 68.0012 78.6667 68.0012Z" fill="#D4C17F"/>
<path d="M52 68.0012H49.3333C48.5959 68.0012 48 68.5986 48 69.3345C48 70.0704 48.5959 70.6678 49.3333 70.6678H52C52.7373 70.6678 53.3333 70.0704 53.3333 69.3345C53.3333 68.5986 52.7373 68.0012 52 68.0012Z" fill="#D4C17F"/>
</svg>
